<svg width="320" height="320" viewBox="0 0 320 320" xmlns="http://www.w3.org/2000/svg">
  <defs>
    <radialGradient id="cwm-fade" cx="50%" cy="50%" r="50%">
      <stop offset="0%" stop-color="#eabf78" stop-opacity="0.10" />
      <stop offset="60%" stop-color="#eabf78" stop-opacity="0.04" />
      <stop offset="100%" stop-color="#eabf78" stop-opacity="0" />
    </radialGradient>
  </defs>

  <circle cx="160" cy="160" r="155" fill="url(#cwm-fade)" />

  <g stroke="#eabf78" stroke-opacity="0.10" fill="none" stroke-linejoin="round">
    <polygon points="160,30 270,93 270,225 160,290 50,225 50,93" stroke-width="1.2" />
    <polygon points="160,60 244,108 244,210 160,260 76,210 76,108" stroke-width="0.7" />
    <circle cx="160" cy="160" r="78" stroke-width="0.6" />
    <circle cx="160" cy="160" r="58" stroke-width="0.5" />
  </g>

  <g stroke="#eabf78" stroke-opacity="0.18" stroke-linecap="round">
    <line x1="120" y1="125" x2="200" y2="125" stroke-width="2" />
    <line x1="160" y1="115" x2="160" y2="205" stroke-width="2.4" />
    <line x1="128" y1="160" x2="192" y2="160" stroke-width="1.6" />
    <line x1="120" y1="195" x2="200" y2="195" stroke-width="2" />
  </g>

  <g fill="#eabf78" fill-opacity="0.20">
    <circle cx="160" cy="30" r="2" />
    <circle cx="160" cy="290" r="2" />
    <circle cx="270" cy="93" r="1.5" />
    <circle cx="270" cy="225" r="1.5" />
    <circle cx="50" cy="93" r="1.5" />
    <circle cx="50" cy="225" r="1.5" />
  </g>
</svg>
